HIERARCHY
ROOT Hips
{
	OFFSET 0.00000 0.00000 0.00000
	CHANNELS 6 Xposition Yposition Zposition Zrotation Yrotation Xrotation 
	JOINT LHipJoint
	{
		OFFSET 0 0 0
		CHANNELS 3 Zrotation Yrotation Xrotation
		JOINT LeftHip
		{
			OFFSET 1.23340 -1.80723 0.69510
			CHANNELS 3 Zrotation Yrotation Xrotation
			JOINT LeftKnee
			{
				OFFSET 2.50056 -6.87023 0.00000
				CHANNELS 3 Zrotation Yrotation Xrotation
				JOINT LeftAnkle
				{
					OFFSET 2.85931 -7.85591 0.00000
					CHANNELS 3 Zrotation Yrotation Xrotation
					JOINT LeftToe
					{
						OFFSET 0.21001 -0.57700 2.07823
						CHANNELS 3 Zrotation Yrotation Xrotation
						End Site
						{
							OFFSET 0.00000 -0.00000 1.08338
						}
					}
				}
			}
		}
	}
	JOINT RHipJoint
	{
		OFFSET 0 0 0
		CHANNELS 3 Zrotation Yrotation Xrotation
		JOINT RightHip
		{
			OFFSET -1.40842 -1.80723 0.69510
			CHANNELS 3 Zrotation Yrotation Xrotation
			JOINT RightKnee
			{
				OFFSET -2.54876 -7.00266 0.00000
				CHANNELS 3 Zrotation Yrotation Xrotation
				JOINT RightAnkle
				{
					OFFSET -2.74835 -7.55104 0.00000
					CHANNELS 3 Zrotation Yrotation Xrotation
					JOINT RightToe
					{
						OFFSET -0.22633 -0.62184 2.00890
						CHANNELS 3 Zrotation Yrotation Xrotation
						End Site
						{
							OFFSET -0.00000 -0.00000 1.05493
						}
					}
				}
			}
		}
	}
	JOINT lowerback
	{
		OFFSET 0 0 0
		CHANNELS 3 Zrotation Yrotation Xrotation
		JOINT Chest
		{
			OFFSET -0.02340 2.02740 -0.12728
			CHANNELS 3 Zrotation Yrotation Xrotation
			JOINT Chest2
			{
				OFFSET -0.00862 2.03614 -0.01188
				CHANNELS 3 Zrotation Yrotation Xrotation
				JOINT lowerneck
				{
					OFFSET 0 0 0
					CHANNELS 3 Zrotation Yrotation Xrotation
					JOINT Neck
					{
						OFFSET 0.03380 1.76650 0.27670
						CHANNELS 3 Zrotation Yrotation Xrotation
						JOINT Head
						{
							OFFSET -0.01114 1.80516 -0.21451
							CHANNELS 3 Zrotation Yrotation Xrotation
							End Site
							{
								OFFSET -0.00766 1.81942 -0.10287
							}
						}
					}
				}
				JOINT LeftCollar
				{
					OFFSET 0 0 0
					CHANNELS 3 Zrotation Yrotation Xrotation
					JOINT LeftShoulder
					{
						OFFSET 3.22358 1.39475 0.18630
CHANNELS 3 Zrotation Xrotation Yrotation
						JOINT LeftElbow
						{
OFFSET 0 -5.450770 0.000000
CHANNELS 3 Zrotation Xrotation Yrotation
							JOINT LeftWrist
							{
OFFSET 0 -3.054880 0.000000
CHANNELS 3 Zrotation Xrotation Yrotation
								JOINT lhand
								{
									OFFSET 0 0 0
CHANNELS 3 Zrotation Xrotation Yrotation
									JOINT LFingers
									{
OFFSET 0 -0.638820 0.000000
CHANNELS 3 Zrotation Xrotation Yrotation
										End Site
										{
OFFSET 0 -0.515030 0.000000
										}
									}
								}
								JOINT LThumb
								{
OFFSET 0 0.000000 0.000000
CHANNELS 3 Zrotation Xrotation Yrotation
									End Site
									{
OFFSET 0 -0.522900 0.522900
									}
								}
							}
						}
					}
				}
				JOINT RightCollar
				{
					OFFSET 0 0 0
					CHANNELS 3 Zrotation Yrotation Xrotation
					JOINT RightShoulder
					{
						OFFSET -3.57143 1.14055 0.30691
CHANNELS 3 Zrotation Xrotation Yrotation
						JOINT RightElbow
						{
OFFSET 0 -4.887020 -0.000000
CHANNELS 3 Zrotation Xrotation Yrotation
							JOINT RightWrist
							{
OFFSET 0 -3.226030 0.000000
CHANNELS 3 Zrotation Xrotation Yrotation
								JOINT rhand
								{
									OFFSET 0 0 0
CHANNELS 3 Zrotation Xrotation Yrotation
									JOINT RFingers
									{
OFFSET 0 -0.716290 0.000000
CHANNELS 3 Zrotation Xrotation Yrotation
										End Site
										{
OFFSET 0 -0.577490 0.000000
										}
									}
								}
								JOINT RThumb
								{
OFFSET 0 0.000000 0.000000
CHANNELS 3 Zrotation Xrotation Yrotation
									End Site
									{
OFFSET 0 -0.586310 0.586310
									}
								}
							}
						}
					}
				}
			}
		}
	}
}
MOTION
Frames: 7
Frame Time: 0.008333333333333333
-0.181709 16.395131 0.023627 209.866202 99.973266 234.821554 0.000000 0.000000 0.000000 -23.651578 6.352202 -67.976575 11.862469 18.331402 65.551582 -0.659756 -23.716385 -11.696521 0.156908 -2.552526 -7.035216 0.000000 0.000000 0.000000 7.892747 -0.565165 -66.598741 -10.539215 -17.701671 61.275304 0.582103 24.829427 -13.380660 -1.211361 6.981745 -19.661406 2.562308 0.144623 16.359446 2.057204 0.948008 5.271516 0.528614 0.568095 -3.551070 -7.480824 -14.761423 -16.205133 14.336519 -20.840584 12.516047 3.015165 -9.016555 8.919616 0.000000 0.000000 0.000000 12.459813 9.276246 -37.041498 47.995485 -52.154361 24.582147 22.940972 -6.502915 -30.338936 0.000000 0.000000 0.000000 -7.125000 0.000000 0.000000 -10.122654 62.137091 4.241859 0.000000 0.000000 0.000000 -36.012609 -34.590413 -18.561930 -31.170942 -41.875740 -12.183941 -20.073314 -174.408599 5.579439 0.000000 0.000000 0.000000 7.125000 0.000000 0.000000 5.551178 35.871315 1.250467
-0.164889 16.485158 0.016460 209.841866 99.771285 234.687693 0.000000 0.000000 0.000000 -23.569971 6.134932 -66.862527 11.399368 18.124016 64.070662 -0.637892 -23.531253 -11.699314 0.161184 -2.586511 -7.129693 0.000000 0.000000 0.000000 8.086654 -0.568649 -65.577752 -10.136408 -17.484888 59.942071 0.637365 24.681713 -12.811958 -1.139351 6.777883 -19.059259 2.370166 0.146763 15.912082 2.008842 0.892653 5.126453 0.599457 0.535718 -3.468689 -7.340495 -14.698495 -16.045530 14.054186 -20.769591 12.774211 2.927261 -8.995875 8.919863 0.000000 0.000000 0.000000 12.452474 9.256717 -37.437841 47.816594 -52.075973 24.440942 22.348235 -7.165665 -29.374858 0.000000 0.000000 0.000000 -7.125000 0.000000 0.000000 -10.195718 61.018418 4.000516 0.000000 0.000000 0.000000 -35.560032 -33.524709 -16.995971 -31.778178 -42.368963 -12.591311 -19.789600 -174.986438 5.315394 0.000000 0.000000 0.000000 7.125000 0.000000 0.000000 5.759839 35.577958 1.338903
-0.143793 16.574921 0.006876 209.099399 99.533157 233.766988 0.000000 0.000000 0.000000 -23.398932 6.059829 -65.702990 10.959518 17.914167 62.648637 -0.598650 -23.336124 -11.842340 0.195483 -2.838528 -7.830105 0.000000 0.000000 0.000000 8.415218 -0.547771 -64.455716 -9.732916 -17.255832 58.590431 0.675501 24.434826 -12.269855 -1.043162 6.493776 -18.224614 2.289587 0.142979 15.467695 1.984624 0.851670 5.067664 0.629903 0.513635 -3.294565 -7.352877 -14.649317 -16.004632 13.979592 -20.723363 13.045138 2.912152 -8.966647 8.991780 0.000000 0.000000 0.000000 12.437256 9.175981 -37.731993 47.763032 -52.052469 24.398694 21.702178 -7.694425 -28.898389 0.000000 0.000000 0.000000 -7.125000 0.000000 0.000000 -10.636152 60.380548 4.016157 0.000000 0.000000 0.000000 -35.103324 -32.641956 -15.704796 -32.295117 -42.780627 -12.941008 -20.145017 -175.581844 5.044619 0.000000 0.000000 0.000000 7.125000 0.000000 0.000000 5.437692 35.308649 1.298893
-0.125975 16.661462 -0.000699 208.751212 99.282350 233.251230 0.000000 0.000000 0.000000 -23.306782 5.978065 -64.628963 10.538233 17.700990 61.271723 -0.533026 -23.005219 -12.083747 0.279607 -3.396167 -9.384169 0.000000 0.000000 0.000000 8.717617 -0.553998 -63.387654 -9.334976 -17.017830 57.240548 0.677438 24.033583 -11.861323 -0.999528 6.362094 -17.838774 2.165271 0.097453 14.998495 1.933480 0.748361 5.017563 0.667441 0.460999 -3.097559 -7.469176 -14.675231 -16.113391 14.000264 -20.818756 13.652861 2.899849 -8.970371 9.245234 0.000000 0.000000 0.000000 12.580793 9.037017 -37.975779 47.697141 -52.023379 24.346757 21.582764 -7.922740 -29.048354 0.000000 0.000000 0.000000 -7.125000 0.000000 0.000000 -10.859746 60.502208 4.133441 0.000000 0.000000 0.000000 -34.517324 -31.865176 -14.505732 -32.823106 -43.193239 -13.301009 -20.621924 -176.036999 4.941368 0.000000 0.000000 0.000000 7.125000 0.000000 0.000000 5.032623 35.221521 1.212646
-0.108010 16.742309 -0.008536 208.114953 99.047318 232.457327 0.000000 0.000000 0.000000 -23.222527 5.948613 -63.641380 10.131641 17.483017 59.927288 -0.465668 -22.576377 -12.257353 0.340963 -3.752175 -10.380332 0.000000 0.000000 0.000000 9.061694 -0.554459 -62.351170 -8.948405 -16.774177 55.911087 0.672656 23.659690 -11.530967 -0.980542 6.303424 -17.667434 2.081181 0.059382 14.523722 1.858863 0.659228 4.918483 0.654141 0.413684 -2.947430 -7.601293 -14.662227 -16.030810 14.082704 -20.872162 14.235459 2.930567 -8.960105 9.463523 0.000000 0.000000 0.000000 12.662241 8.945196 -38.117659 47.490104 -51.931652 24.183673 21.394371 -8.041782 -29.114033 0.000000 0.000000 0.000000 -7.125000 0.000000 0.000000 -11.110160 60.522240 4.235454 0.000000 0.000000 0.000000 -33.820418 -31.021034 -13.263452 -33.299981 -43.559241 -13.628388 -20.571942 -176.569790 4.971787 0.000000 0.000000 0.000000 7.125000 0.000000 0.000000 5.076815 35.251516 1.219649
-0.087446 16.824328 -0.016042 207.679312 98.839439 231.787361 0.000000 0.000000 0.000000 -23.196812 5.973054 -62.547516 9.737046 17.258544 58.604724 -0.417722 -22.205941 -12.330400 0.360998 -3.859675 -10.682227 0.000000 0.000000 0.000000 9.385491 -0.627571 -61.232754 -8.576897 -16.526819 54.613742 0.652975 23.319822 -11.361477 -1.000455 6.365165 -17.847694 1.970167 0.040679 14.077901 1.782207 0.594648 4.842208 0.649068 0.379067 -2.788230 -7.631271 -14.624408 -15.855823 14.046460 -20.862281 14.604714 2.931276 -8.945746 9.558343 0.000000 0.000000 0.000000 12.619827 8.883759 -38.184624 47.327480 -51.859023 24.055726 21.187133 -8.044128 -29.208682 0.000000 0.000000 0.000000 -7.125000 0.000000 0.000000 -11.400070 60.566622 4.359752 0.000000 0.000000 0.000000 -33.204452 -30.109990 -12.112450 -33.819677 -43.949712 -13.988090 -20.374456 -177.143223 4.712390 0.000000 0.000000 0.000000 7.125000 0.000000 0.000000 5.216260 34.967066 1.289183
-0.069220 16.897775 -0.020958 207.342477 98.637323 231.200599 0.000000 0.000000 0.000000 -23.200966 6.040208 -61.463389 9.358263 17.031935 57.319869 -0.378003 -21.939181 -12.433116 0.368350 -3.898565 -10.791493 0.000000 0.000000 0.000000 9.652339 -0.652543 -60.134510 -8.226959 -16.282691 53.374507 0.632587 22.963047 -11.184776 -0.986436 6.321323 -17.719758 1.746641 0.002595 13.710163 1.765698 0.496651 4.727615 0.774586 0.326238 -2.712217 -7.712246 -14.581859 -15.708006 13.876028 -20.811180 15.020618 2.901299 -8.925003 9.657295 0.000000 0.000000 0.000000 12.456695 8.881313 -38.172967 47.065182 -51.740955 23.849634 20.850737 -8.151569 -29.437961 0.000000 0.000000 0.000000 -7.125000 0.000000 0.000000 -11.919583 60.713279 4.603793 0.000000 0.000000 0.000000 -32.662408 -29.239021 -10.955146 -34.511500 -44.459178 -14.470449 -20.638117 -177.006761 4.261276 0.000000 0.000000 0.000000 7.125000 0.000000 0.000000 4.958409 34.499001 1.281622
